<svg width="34" height="34" viewBox="0 0 34 34" fill="none" xmlns="http://www.w3.org/2000/svg">
<path d="M33.1667 14.4375L32.9792 13.7083H17.4792V20.2917H26.75C26.2327 22.3006 25.0567 24.0779 23.4098 25.3394C21.7631 26.6008 19.7408 27.2735 17.6667 27.25C14.96 27.2277 12.3594 26.1948 10.375 24.3542C9.39944 23.3927 8.62315 22.2481 8.09049 20.9863C7.55784 19.7244 7.2793 18.3698 7.27082 17C7.3023 14.249 8.39149 11.6155 10.3125 9.64588C12.2689 7.79246 14.8675 6.76942 17.5625 6.79171C19.8706 6.80948 22.0929 7.66877 23.8125 9.20838L28.3958 4.50004C25.375 1.80496 21.465 0.321042 17.4167 0.333376C15.1896 0.320147 12.9819 0.745688 10.9193 1.58573C8.85676 2.42575 6.97986 3.66381 5.39582 5.22921C2.38267 8.35896 0.683881 12.5246 0.648985 16.869C0.61411 21.2133 2.24582 25.4056 5.20832 28.5833C6.84965 30.2185 8.80044 31.5104 10.9467 32.3831C13.0929 33.256 15.3914 33.6923 17.7083 33.6667C19.8092 33.6823 21.8914 33.2713 23.8289 32.4583C25.7662 31.6454 27.5183 30.4477 28.9792 28.9375C31.8456 25.7856 33.3962 21.6556 33.3125 17.3958C33.335 16.4075 33.2862 15.419 33.1667 14.4375Z" fill="black"/>
</svg>
