<svg width="35" height="46" viewBox="0 0 35 46" fill="none" xmlns="http://www.w3.org/2000/svg">
<path d="M17.5 0C7.85094 0 0 6.97253 0 15.5396C0 19.6196 2.00266 25.0452 5.95219 31.6663C9.12406 36.9823 12.7936 41.7895 14.7022 44.1813C15.0247 44.59 15.4464 44.9224 15.933 45.1515C16.4197 45.3806 16.9577 45.5 17.5033 45.5C18.0489 45.5 18.5869 45.3806 19.0735 45.1515C19.5602 44.9224 19.9819 44.59 20.3044 44.1813C22.2097 41.7895 25.8825 36.9823 29.0544 31.6663C32.9973 25.0473 35 19.6216 35 15.5396C35 6.97253 27.1491 0 17.5 0ZM17.5 22.7508C16.1155 22.7508 14.7622 22.3696 13.611 21.6554C12.4599 20.9411 11.5627 19.9259 11.0328 18.7381C10.503 17.5504 10.3644 16.2434 10.6345 14.9825C10.9046 13.7215 11.5713 12.5633 12.5503 11.6542C13.5292 10.7452 14.7765 10.1261 16.1344 9.87526C17.4922 9.62445 18.8997 9.75318 20.1788 10.2452C21.4579 10.7372 22.5511 11.5703 23.3203 12.6393C24.0895 13.7082 24.5 14.965 24.5 16.2506C24.498 17.974 23.7598 19.6263 22.4475 20.8449C21.1352 22.0635 19.3559 22.749 17.5 22.7508Z" fill="#B9B8B9"/>
</svg>
