<svg width="25" height="25" viewBox="0 0 25 25" fill="none" xmlns="http://www.w3.org/2000/svg">
<path d="M11.2187 19.0625C9.66739 19.0625 8.15088 18.6025 6.86099 17.7406C5.57109 16.8788 4.56574 15.6537 3.97206 14.2204C3.37838 12.7872 3.22305 11.21 3.52571 9.68851C3.82836 8.16698 4.5754 6.76936 5.67237 5.67239C6.76934 4.57542 8.16697 3.82838 9.6885 3.52572C11.21 3.22306 12.7872 3.3784 14.2204 3.97208C15.6536 4.56575 16.8787 5.57111 17.7406 6.861C18.6025 8.1509 19.0625 9.66741 19.0625 11.2188C19.0625 12.2488 18.8596 13.2688 18.4654 14.2204C18.0712 15.1721 17.4934 16.0368 16.7651 16.7651C16.0368 17.4935 15.1721 18.0713 14.2204 18.4654C13.2687 18.8596 12.2487 19.0625 11.2187 19.0625ZM11.2187 4.94792C9.98261 4.94792 8.77424 5.31448 7.74642 6.00124C6.71862 6.68799 5.91754 7.66412 5.4445 8.80615C4.97145 9.94819 4.84767 11.2048 5.08883 12.4172C5.32999 13.6296 5.92525 14.7432 6.79932 15.6173C7.6734 16.4914 8.78704 17.0867 9.99942 17.3278C11.2118 17.569 12.4684 17.4452 13.6105 16.9722C14.7525 16.4991 15.7286 15.698 16.4154 14.6702C17.1022 13.6424 17.4687 12.4341 17.4687 11.1979C17.4687 9.54031 16.8103 7.95061 15.6381 6.7785C14.466 5.6064 12.8764 4.94792 11.2187 4.94792Z" fill="#B9B8B9"/>
<path d="M20.8333 21.6146C20.7307 21.615 20.629 21.595 20.5342 21.5556C20.4394 21.5164 20.3533 21.4585 20.2812 21.3854L15.9792 17.0833C15.8411 16.9352 15.766 16.7393 15.7696 16.5369C15.7731 16.3345 15.8552 16.1415 15.9983 15.9982C16.1415 15.8551 16.3346 15.7731 16.537 15.7696C16.7394 15.7661 16.9352 15.8412 17.0833 15.9792L21.3854 20.2813C21.5317 20.4277 21.6138 20.6263 21.6138 20.8333C21.6138 21.0403 21.5317 21.2389 21.3854 21.3854C21.3133 21.4585 21.2273 21.5164 21.1325 21.5556C21.0377 21.595 20.9359 21.615 20.8333 21.6146Z" fill="#B9B8B9"/>
</svg>
