<svg width="20" height="20" viewBox="0 0 20 20" fill="none" xmlns="http://www.w3.org/2000/svg">
<path d="M10 4C9.74632 4 9.50302 3.89922 9.32364 3.71984C9.14425 3.54046 9.04348 3.29716 9.04348 3.04348V0.956522C9.04348 0.702836 9.14425 0.459541 9.32364 0.280159C9.50302 0.100776 9.74632 0 10 0C10.2537 0 10.497 0.100776 10.6764 0.280159C10.8557 0.459541 10.9565 0.702836 10.9565 0.956522V3.04348C10.9565 3.29716 10.8557 3.54046 10.6764 3.71984C10.497 3.89922 10.2537 4 10 4ZM10 20C9.74632 20 9.50302 19.8992 9.32364 19.7198C9.14425 19.5405 9.04348 19.2972 9.04348 19.0435V16.9565C9.04348 16.7028 9.14425 16.4595 9.32364 16.2802C9.50302 16.1008 9.74632 16 10 16C10.2537 16 10.497 16.1008 10.6764 16.2802C10.8557 16.4595 10.9565 16.7028 10.9565 16.9565V19.0435C10.9565 19.2972 10.8557 19.5405 10.6764 19.7198C10.497 19.8992 10.2537 20 10 20ZM14.9191 6.03739C14.73 6.03737 14.5451 5.98127 14.3878 5.87619C14.2306 5.77112 14.108 5.62177 14.0356 5.44704C13.9632 5.27231 13.9442 5.08003 13.9811 4.89452C14.0179 4.70901 14.1089 4.53858 14.2426 4.40478L15.7183 2.92913C15.8984 2.75365 16.1405 2.65619 16.392 2.65784C16.6435 2.6595 16.8842 2.76014 17.062 2.93798C17.2399 3.11582 17.3405 3.35655 17.3422 3.60804C17.3438 3.85954 17.2464 4.10157 17.0709 4.28174L15.5952 5.75739C15.5065 5.84629 15.4011 5.91678 15.2851 5.96483C15.1691 6.01288 15.0447 6.03754 14.9191 6.03739ZM3.60522 17.3513C3.41603 17.3513 3.23109 17.2952 3.0738 17.19C2.91651 17.0849 2.79393 16.9355 2.72156 16.7607C2.64919 16.5859 2.63028 16.3935 2.66723 16.208C2.70418 16.0224 2.79532 15.852 2.92913 15.7183L4.40478 14.2426C4.49317 14.1519 4.59869 14.0796 4.71524 14.03C4.83178 13.9803 4.95703 13.9543 5.0837 13.9535C5.21037 13.9527 5.33594 13.977 5.45313 14.0251C5.57032 14.0732 5.67679 14.1441 5.76636 14.2336C5.85593 14.3232 5.92682 14.4297 5.97491 14.5469C6.023 14.6641 6.04733 14.7896 6.0465 14.9163C6.04566 15.043 6.01968 15.1682 5.97005 15.2848C5.92042 15.4013 5.84813 15.5068 5.75739 15.5952L4.28174 17.0709C4.19301 17.1599 4.08756 17.2305 3.97146 17.2786C3.85536 17.3267 3.7309 17.3514 3.60522 17.3513ZM19.0435 10.9565H16.9565C16.7028 10.9565 16.4595 10.8557 16.2802 10.6764C16.1008 10.497 16 10.2537 16 10C16 9.74632 16.1008 9.50302 16.2802 9.32364C16.4595 9.14425 16.7028 9.04348 16.9565 9.04348H19.0435C19.2972 9.04348 19.5405 9.14425 19.7198 9.32364C19.8992 9.50302 20 9.74632 20 10C20 10.2537 19.8992 10.497 19.7198 10.6764C19.5405 10.8557 19.2972 10.9565 19.0435 10.9565ZM3.04348 10.9565H0.956522C0.702836 10.9565 0.459541 10.8557 0.280159 10.6764C0.100776 10.497 0 10.2537 0 10C0 9.74632 0.100776 9.50302 0.280159 9.32364C0.459541 9.14425 0.702836 9.04348 0.956522 9.04348H3.04348C3.29716 9.04348 3.54046 9.14425 3.71984 9.32364C3.89922 9.50302 4 9.74632 4 10C4 10.2537 3.89922 10.497 3.71984 10.6764C3.54046 10.8557 3.29716 10.9565 3.04348 10.9565ZM16.3948 17.3513C16.2691 17.3514 16.1446 17.3267 16.0285 17.2786C15.9124 17.2305 15.807 17.1599 15.7183 17.0709L14.2426 15.5952C14.0671 15.4151 13.9697 15.173 13.9713 14.9215C13.973 14.67 14.0736 14.4293 14.2515 14.2515C14.4293 14.0736 14.67 13.973 14.9215 13.9713C15.173 13.9697 15.4151 14.0671 15.5952 14.2426L17.0709 15.7183C17.2047 15.852 17.2958 16.0224 17.3328 16.208C17.3697 16.3935 17.3508 16.5859 17.2784 16.7607C17.2061 16.9355 17.0835 17.0849 16.9262 17.19C16.7689 17.2952 16.584 17.3513 16.3948 17.3513ZM5.08087 6.03739C4.95528 6.03764 4.83088 6.01302 4.71484 5.96497C4.5988 5.91691 4.49343 5.84636 4.40478 5.75739L2.92913 4.28174C2.75365 4.10157 2.65619 3.85954 2.65784 3.60804C2.6595 3.35655 2.76014 3.11582 2.93798 2.93798C3.11582 2.76014 3.35655 2.6595 3.60804 2.65784C3.85954 2.65619 4.10157 2.75365 4.28174 2.92913L5.75739 4.40478C5.89108 4.53858 5.9821 4.70901 6.01895 4.89452C6.05579 5.08003 6.03682 5.27231 5.96441 5.44704C5.89201 5.62177 5.76942 5.77112 5.61216 5.87619C5.4549 5.98127 5.27001 6.03737 5.08087 6.03739ZM10 14.4348C9.12288 14.4348 8.26546 14.1747 7.53617 13.6874C6.80687 13.2001 6.23845 12.5075 5.90279 11.6971C5.56714 10.8868 5.47931 9.99508 5.65043 9.13482C5.82155 8.27455 6.24392 7.48435 6.86414 6.86414C7.48435 6.24392 8.27455 5.82155 9.13482 5.65043C9.99508 5.47931 10.8868 5.56714 11.6971 5.90279C12.5075 6.23845 13.2001 6.80687 13.6874 7.53617C14.1747 8.26546 14.4348 9.12288 14.4348 10C14.4334 11.1758 13.9657 12.303 13.1343 13.1343C12.303 13.9657 11.1758 14.4334 10 14.4348Z" fill="#B9B8B9"/>
</svg>
