<svg width="48" height="38" viewBox="0 0 48 38" fill="none" xmlns="http://www.w3.org/2000/svg">
<path d="M47.4375 4.69336C45.6792 5.45738 43.8187 5.96073 41.915 6.1875C43.9157 5.016 45.4202 3.15485 46.1465 0.953125C44.255 2.05917 42.189 2.83523 40.0371 3.24805C39.131 2.29837 38.0411 1.54288 36.8339 1.02749C35.6267 0.512096 34.3273 0.247574 33.0146 0.25C27.7002 0.25 23.3994 4.48828 23.3994 9.71289C23.3956 10.4396 23.4789 11.1642 23.6475 11.8711C19.8366 11.6924 16.105 10.7203 12.6914 9.01685C9.27777 7.31341 6.25731 4.91617 3.82324 1.97852C2.96931 3.41809 2.51771 5.06059 2.51562 6.73437C2.51562 10.0156 4.22754 12.916 6.8125 14.6152C5.28098 14.5789 3.78085 14.1735 2.43945 13.4336V13.5508C2.43945 18.1406 5.75977 21.959 10.1543 22.8281C9.32791 23.0484 8.47634 23.16 7.62109 23.1602C7.01424 23.1612 6.40876 23.1023 5.81348 22.9844C7.03516 26.7441 10.5908 29.4785 14.8027 29.5566C11.3803 32.1943 7.17834 33.6199 2.85742 33.6094C2.09045 33.6082 1.32419 33.5626 0.5625 33.4727C4.95818 36.2795 10.0678 37.7642 15.2832 37.75C32.9941 37.75 42.6699 23.3262 42.6699 10.8164C42.6699 10.4062 42.6592 9.99609 42.6396 9.5957C44.5177 8.25982 46.1424 6.59972 47.4375 4.69336Z" fill="black"/>
</svg>
