<svg width="20" height="20" viewBox="0 0 20 20" fill="none" xmlns="http://www.w3.org/2000/svg">
<path d="M20 9.64291C20 12.3898 18.9088 15.0241 16.9665 16.9665C15.0241 18.9088 12.3898 20 9.64291 20C5.44651 20 1.68403 17.5893 0.0594858 13.8567C0.00215347 13.7252 -0.014227 13.5794 0.0124791 13.4384C0.0391851 13.2974 0.107739 13.1677 0.209209 13.0663C0.310678 12.9648 0.440358 12.8963 0.58135 12.8696C0.722343 12.8428 0.86811 12.8592 0.999659 12.9166C1.98358 13.3451 3.24384 13.5715 4.64294 13.5715C9.56613 13.5715 13.5715 9.56613 13.5715 4.64294C13.5715 3.24384 13.3451 1.98358 12.9166 0.99966C12.8592 0.868111 12.8428 0.722343 12.8695 0.58135C12.8963 0.440359 12.9648 0.310678 13.0663 0.209209C13.1677 0.107738 13.2974 0.0391846 13.4384 0.0124798C13.5794 -0.0142269 13.7252 0.0021534 13.8567 0.0594845C17.5893 1.68403 20 5.44651 20 9.64291Z" fill="black"/>
</svg>
